<svg width="3840" height="2160" viewBox="0 0 3840 2160" fill="none" xmlns="http://www.w3.org/2000/svg">
<rect x="15" y="334" width="102" height="1752" fill="black"/>
<path d="M66 322.5C79.9256 322.5 92.4423 324.053 101.4 326.512C105.897 327.746 109.355 329.171 111.631 330.647C114.015 332.195 114.5 333.383 114.5 334C114.5 334.617 114.015 335.805 111.631 337.353C109.355 338.829 105.897 340.254 101.4 341.488C92.4423 343.947 79.9256 345.5 66 345.5C52.0744 345.5 39.5577 343.947 30.5996 341.488C26.103 340.254 22.6446 338.829 20.3691 337.353C17.9854 335.805 17.5 334.617 17.5 334C17.5 333.383 17.9854 332.195 20.3691 330.647C22.6446 329.171 26.103 327.746 30.5996 326.512C39.5577 324.053 52.0744 322.5 66 322.5Z" fill="black" stroke="white" stroke-width="5"/>
<path d="M66 2074.5C79.9256 2074.5 92.4423 2076.05 101.4 2078.51C105.897 2079.75 109.355 2081.17 111.631 2082.65C114.015 2084.19 114.5 2085.38 114.5 2086C114.5 2086.62 114.015 2087.81 111.631 2089.35C109.355 2090.83 105.897 2092.25 101.4 2093.49C92.4423 2095.95 79.9256 2097.5 66 2097.5C52.0744 2097.5 39.5577 2095.95 30.5996 2093.49C26.103 2092.25 22.6446 2090.83 20.3691 2089.35C17.9854 2087.81 17.5 2086.62 17.5 2086C17.5 2085.38 17.9854 2084.19 20.3691 2082.65C22.6446 2081.17 26.103 2079.75 30.5996 2078.51C39.5577 2076.05 52.0744 2074.5 66 2074.5Z" fill="black" stroke="white" stroke-width="5"/>
<rect x="117" y="377" width="3691" height="1665" fill="black"/>
<rect x="41" y="302" width="52" height="32" fill="black"/>
<rect x="40" y="2086" width="52" height="32" fill="black"/>
<path id="aboutahouba" d="M125.4 854L186.6 530H268.2L328.6 854H262.6L251.8 785.6H204.2L193 854H125.4ZM210.6 742.8H245L227.8 616.4L210.6 742.8ZM361.313 854V530H445.713C459.579 530 472.646 531.067 484.913 533.2C497.446 535.333 508.513 539.467 518.113 545.6C527.713 551.467 535.179 560 540.513 571.2C546.113 582.133 548.913 596.667 548.913 614.8C548.913 627.867 546.913 638.933 542.912 648C539.179 656.8 533.713 663.867 526.513 669.2C519.579 674.533 511.179 678.133 501.313 680C513.846 681.6 524.379 685.733 532.913 692.4C541.446 698.8 547.846 707.467 552.113 718.4C556.646 729.333 558.913 742.533 558.913 758C558.913 774.8 556.646 789.333 552.113 801.6C547.846 813.6 541.579 823.467 533.313 831.2C525.046 838.933 514.779 844.667 502.513 848.4C490.513 852.133 476.646 854 460.913 854H361.313ZM432.913 804H448.113C463.846 804 474.646 800 480.513 792C486.646 784 489.713 772.267 489.713 756.8C489.713 744.533 488.379 734.8 485.713 727.6C483.046 720.4 478.646 715.2 472.513 712C466.379 708.533 458.113 706.8 447.713 706.8H432.913V804ZM432.913 659.6H446.913C457.846 659.6 466.113 658 471.713 654.8C477.313 651.333 481.046 646.4 482.913 640C485.046 633.6 486.113 625.867 486.113 616.8C486.113 608.267 484.513 601.2 481.313 595.6C478.379 589.733 473.846 585.333 467.713 582.4C461.846 579.467 454.379 578 445.313 578H432.913V659.6ZM689.269 858.8C665.002 858.8 645.802 854.533 631.669 846C617.535 837.467 607.402 825.2 601.269 809.2C595.135 793.2 592.069 774.133 592.069 752V631.6C592.069 609.2 595.135 590.133 601.269 574.4C607.402 558.667 617.535 546.667 631.669 538.4C645.802 529.867 665.002 525.6 689.269 525.6C713.802 525.6 733.135 529.867 747.269 538.4C761.669 546.667 771.935 558.667 778.069 574.4C784.202 590.133 787.269 609.2 787.269 631.6V752C787.269 774.133 784.202 793.2 778.069 809.2C771.935 825.2 761.669 837.467 747.269 846C733.135 854.533 713.802 858.8 689.269 858.8ZM689.269 808C696.735 808 702.202 806.133 705.669 802.4C709.135 798.667 711.402 793.867 712.469 788C713.535 782.133 714.069 776.133 714.069 770V614C714.069 607.6 713.535 601.6 712.469 596C711.402 590.133 709.135 585.333 705.669 581.6C702.202 577.867 696.735 576 689.269 576C682.335 576 677.135 577.867 673.669 581.6C670.202 585.333 667.935 590.133 666.869 596C665.802 601.6 665.269 607.6 665.269 614V770C665.269 776.133 665.669 782.133 666.469 788C667.535 793.867 669.669 798.667 672.869 802.4C676.335 806.133 681.802 808 689.269 808ZM924.444 858.8C899.644 858.8 880.177 854.8 866.044 846.8C852.177 838.533 842.444 826.667 836.844 811.2C831.244 795.467 828.444 776.267 828.444 753.6V530H899.244V764.4C899.244 771.067 899.777 777.733 900.844 784.4C901.91 791.067 904.177 796.533 907.644 800.8C911.377 805.067 916.977 807.2 924.444 807.2C932.177 807.2 937.777 805.067 941.244 800.8C944.71 796.533 946.844 791.067 947.644 784.4C948.71 777.733 949.244 771.067 949.244 764.4V530H1020.44V753.6C1020.44 776.267 1017.51 795.467 1011.64 811.2C1006.04 826.667 996.31 838.533 982.444 846.8C968.577 854.8 949.244 858.8 924.444 858.8ZM1095.2 854V583.2H1046.4V530H1215.6V583.2H1167.2V854H1095.2ZM1330.87 854L1392.07 530H1473.67L1534.07 854H1468.07L1457.27 785.6H1409.67L1398.47 854H1330.87ZM1416.07 742.8H1450.47L1433.27 616.4L1416.07 742.8ZM1567.98 854V530H1639.58V661.2H1689.98V530H1761.58V854H1689.98V712.4H1639.58V854H1567.98ZM1903.72 858.8C1879.46 858.8 1860.26 854.533 1846.12 846C1831.99 837.467 1821.86 825.2 1815.72 809.2C1809.59 793.2 1806.52 774.133 1806.52 752V631.6C1806.52 609.2 1809.59 590.133 1815.72 574.4C1821.86 558.667 1831.99 546.667 1846.12 538.4C1860.26 529.867 1879.46 525.6 1903.72 525.6C1928.26 525.6 1947.59 529.867 1961.72 538.4C1976.12 546.667 1986.39 558.667 1992.52 574.4C1998.66 590.133 2001.72 609.2 2001.72 631.6V752C2001.72 774.133 1998.66 793.2 1992.52 809.2C1986.39 825.2 1976.12 837.467 1961.72 846C1947.59 854.533 1928.26 858.8 1903.72 858.8ZM1903.72 808C1911.19 808 1916.66 806.133 1920.12 802.4C1923.59 798.667 1925.86 793.867 1926.92 788C1927.99 782.133 1928.52 776.133 1928.52 770V614C1928.52 607.6 1927.99 601.6 1926.92 596C1925.86 590.133 1923.59 585.333 1920.12 581.6C1916.66 577.867 1911.19 576 1903.72 576C1896.79 576 1891.59 577.867 1888.12 581.6C1884.66 585.333 1882.39 590.133 1881.32 596C1880.26 601.6 1879.72 607.6 1879.72 614V770C1879.72 776.133 1880.12 782.133 1880.92 788C1881.99 793.867 1884.12 798.667 1887.32 802.4C1890.79 806.133 1896.26 808 1903.72 808ZM2138.9 858.8C2114.1 858.8 2094.63 854.8 2080.5 846.8C2066.63 838.533 2056.9 826.667 2051.3 811.2C2045.7 795.467 2042.9 776.267 2042.9 753.6V530H2113.7V764.4C2113.7 771.067 2114.23 777.733 2115.3 784.4C2116.36 791.067 2118.63 796.533 2122.1 800.8C2125.83 805.067 2131.43 807.2 2138.9 807.2C2146.63 807.2 2152.23 805.067 2155.7 800.8C2159.16 796.533 2161.3 791.067 2162.1 784.4C2163.16 777.733 2163.7 771.067 2163.7 764.4V530H2234.9V753.6C2234.9 776.267 2231.96 795.467 2226.1 811.2C2220.5 826.667 2210.76 838.533 2196.9 846.8C2183.03 854.8 2163.7 858.8 2138.9 858.8ZM2280.45 854V530H2364.85C2378.72 530 2391.79 531.067 2404.05 533.2C2416.59 535.333 2427.65 539.467 2437.25 545.6C2446.85 551.467 2454.32 560 2459.65 571.2C2465.25 582.133 2468.05 596.667 2468.05 614.8C2468.05 627.867 2466.05 638.933 2462.05 648C2458.32 656.8 2452.85 663.867 2445.65 669.2C2438.72 674.533 2430.32 678.133 2420.45 680C2432.99 681.6 2443.52 685.733 2452.05 692.4C2460.59 698.8 2466.99 707.467 2471.25 718.4C2475.79 729.333 2478.05 742.533 2478.05 758C2478.05 774.8 2475.79 789.333 2471.25 801.6C2466.99 813.6 2460.72 823.467 2452.45 831.2C2444.19 838.933 2433.92 844.667 2421.65 848.4C2409.65 852.133 2395.79 854 2380.05 854H2280.45ZM2352.05 804H2367.25C2382.99 804 2393.79 800 2399.65 792C2405.79 784 2408.85 772.267 2408.85 756.8C2408.85 744.533 2407.52 734.8 2404.85 727.6C2402.19 720.4 2397.79 715.2 2391.65 712C2385.52 708.533 2377.25 706.8 2366.85 706.8H2352.05V804ZM2352.05 659.6H2366.05C2376.99 659.6 2385.25 658 2390.85 654.8C2396.45 651.333 2400.19 646.4 2402.05 640C2404.19 633.6 2405.25 625.867 2405.25 616.8C2405.25 608.267 2403.65 601.2 2400.45 595.6C2397.52 589.733 2392.99 585.333 2386.85 582.4C2380.99 579.467 2373.52 578 2364.45 578H2352.05V659.6ZM2499.23 854L2560.43 530H2642.03L2702.43 854H2636.43L2625.63 785.6H2578.03L2566.83 854H2499.23ZM2584.43 742.8H2618.83L2601.63 616.4L2584.43 742.8Z" fill="white"/>
</svg>
