<svg width="1024" height="1071" viewBox="0 0 1024 1071" fill="none" xmlns="http://www.w3.org/2000/svg">
<g clip-path="url(#clip0_67_15)">
<mask id="mask0_67_15" style="mask-type:alpha" maskUnits="userSpaceOnUse" x="-268" y="137" width="1401" height="893">
<path d="M-124.48 1021.31C-180.172 1021.31 -267 1029 -267 1029V138H1132V966.328C1132 966.328 1110.76 972.361 1098.12 966.328C1090.74 962.81 1083.26 963.464 1080.52 952.434C1077.58 940.573 1092.84 934.356 1089.32 922.872C1085.88 911.644 1077.32 917.12 1069.53 914.004C1061.75 910.887 1057.86 905.135 1043.34 905.135C1036.28 904.185 1035.82 905.135 1025.2 905.135C1014.59 905.135 1016.39 903.446 1010.91 905.135C1005.28 906.876 997.358 914.004 997.358 914.004C997.358 914.004 1014.28 911.265 1017.14 922.872C1020.59 936.839 997.358 945.931 997.358 945.931C997.358 945.931 970.605 971.344 922.251 952.434C873.897 933.525 839.084 907.796 918.221 937.062C997.358 966.328 711.018 836.418 737.781 937.062C739.418 943.218 744.068 946.209 742.544 952.434C741.021 958.659 733.797 951.417 728.256 952.434C717.85 954.345 702.976 966.328 702.976 966.328L728.256 981.701L482.052 997.073L485.899 981.701C485.899 981.701 464.443 988.204 449.259 988.204C406.815 988.204 397.226 1002.46 365.545 995.891C355.573 993.821 349.785 983.173 340.265 988.204C336.591 990.146 335.246 993.604 331.656 995.891C328.065 998.177 314.183 997.606 303.078 995.891C287.848 993.538 269.262 982.043 264.975 981.701C260.689 981.359 256.738 976.617 253.984 981.701C251.682 985.952 257.076 993.704 253.984 995.891C250.892 998.077 250.164 989.312 246.84 988.204C241.913 986.563 239.523 992.677 234.933 995.891C230.877 998.729 224.935 996.713 224.674 1003.58C224.405 1010.65 234.933 1012.45 234.933 1012.45C234.933 1012.45 111.948 1033.95 33.7932 1021.31C21.5105 1019.33 30.306 1015.22 2.41681 1015.22C-4.1799 1015.22 -6.39719 1017.54 -6.77988 1018.04C-6.86938 1018.16 -6.85852 1018.17 -6.77988 1018.04C-6.33121 1017.27 -3.67627 1011.54 -4.85922 991.031C-50.0457 965.078 -65.8937 1021.31 -124.48 1021.31Z" fill="black"/>
<path d="M-267 1029C-267 1029 -180.172 1021.31 -124.48 1021.31C-65.8937 1021.31 -50.0457 965.078 -4.85922 991.031C-2.58228 1030.51 -14.5242 1015.22 2.41681 1015.22C30.306 1015.22 21.5105 1019.33 33.7932 1021.31C111.948 1033.95 234.933 1012.45 234.933 1012.45C234.933 1012.45 224.405 1010.65 224.674 1003.58C224.935 996.713 230.877 998.729 234.933 995.89C239.523 992.678 241.913 986.563 246.84 988.204C250.164 989.312 250.892 998.077 253.984 995.89C257.076 993.704 251.682 985.952 253.984 981.701C256.738 976.617 260.689 981.359 264.975 981.701C269.262 982.043 287.848 993.538 303.078 995.89C314.183 997.606 328.065 998.177 331.656 995.89C335.246 993.604 336.591 990.146 340.265 988.204C349.785 983.173 355.573 993.821 365.545 995.89C397.226 1002.46 406.815 988.204 449.259 988.204C464.443 988.204 485.899 981.701 485.899 981.701L482.052 997.073L728.256 981.701L702.976 966.329C702.976 966.329 717.85 954.345 728.256 952.434C733.797 951.417 741.021 958.659 742.544 952.434C744.068 946.209 739.418 943.218 737.781 937.062C711.018 836.418 997.358 966.328 918.221 937.062C839.084 907.796 873.897 933.525 922.251 952.434C970.605 971.344 997.358 945.931 997.358 945.931C997.358 945.931 1020.59 936.839 1017.14 922.872C1014.28 911.265 997.358 914.004 997.358 914.004C997.358 914.004 1005.28 906.876 1010.91 905.135C1016.39 903.446 1014.59 905.135 1025.2 905.135C1035.82 905.135 1036.28 904.185 1043.34 905.135C1057.86 905.135 1061.75 910.887 1069.53 914.004C1077.32 917.12 1085.88 911.644 1089.32 922.872C1092.84 934.356 1077.58 940.573 1080.52 952.434C1083.26 963.464 1090.74 962.81 1098.12 966.329C1110.76 972.361 1132 966.329 1132 966.329V138H-267V1029Z" stroke="black"/>
</mask>
<g mask="url(#mask0_67_15)">
<rect y="138" width="1024" height="891" fill="black"/>
<path d="M97 187H923V739.096H195.945L97 833V187Z" fill="#D9D9D9"/>
</g>
</g>
<defs>
<clipPath id="clip0_67_15">
<rect width="1024" height="1071" fill="white"/>
</clipPath>
</defs>
</svg>
